<svg width="489" height="85" viewBox="0 0 489 85" fill="none" xmlns="http://www.w3.org/2000/svg">
<g clip-path="url(#clip0)">
<path d="M137.584 68.12C137.104 68.12 136.72 67.976 136.432 67.688C136.144 67.4 136 67.016 136 66.536V18.584C136 18.104 136.144 17.72 136.432 17.432C136.72 17.144 137.104 17 137.584 17H138.808C139.288 17 139.672 17.144 139.96 17.432C140.248 17.72 140.392 18.104 140.392 18.584V35.648C141.832 33.776 143.464 32.36 145.288 31.4C147.16 30.44 149.56 29.96 152.488 29.96C157.192 29.96 160.816 31.472 163.36 34.496C165.904 37.472 167.176 41.336 167.176 46.088V66.536C167.176 67.016 167.032 67.4 166.744 67.688C166.456 67.976 166.072 68.12 165.592 68.12H164.368C163.888 68.12 163.504 67.976 163.216 67.688C162.928 67.4 162.784 67.016 162.784 66.536V46.448C162.784 42.56 161.824 39.536 159.904 37.376C158.032 35.216 155.32 34.136 151.768 34.136C148.312 34.136 145.552 35.24 143.488 37.448C141.424 39.608 140.392 42.608 140.392 46.448V66.536C140.392 67.016 140.248 67.4 139.96 67.688C139.672 67.976 139.288 68.12 138.808 68.12H137.584Z" fill="black"/>
<path d="M192.003 68.84C187.011 68.84 183.123 67.328 180.339 64.304C177.603 61.232 176.163 57.272 176.019 52.424L175.947 49.4L176.019 46.376C176.163 41.528 177.603 37.592 180.339 34.568C183.123 31.496 187.011 29.96 192.003 29.96C196.995 29.96 200.859 31.496 203.595 34.568C206.379 37.592 207.843 41.528 207.987 46.376C208.035 46.856 208.059 47.864 208.059 49.4C208.059 50.936 208.035 51.944 207.987 52.424C207.843 57.272 206.379 61.232 203.595 64.304C200.859 67.328 196.995 68.84 192.003 68.84ZM192.003 64.664C195.411 64.664 198.147 63.584 200.211 61.424C202.323 59.216 203.451 56.096 203.595 52.064C203.643 51.584 203.667 50.696 203.667 49.4C203.667 48.104 203.643 47.216 203.595 46.736C203.451 42.704 202.323 39.608 200.211 37.448C198.147 35.24 195.411 34.136 192.003 34.136C188.595 34.136 185.835 35.24 183.723 37.448C181.659 39.608 180.555 42.704 180.411 46.736L180.339 49.4L180.411 52.064C180.555 56.096 181.659 59.216 183.723 61.424C185.835 63.584 188.595 64.664 192.003 64.664Z" fill="black"/>
<path d="M218.759 68.12C218.279 68.12 217.895 67.976 217.607 67.688C217.319 67.4 217.175 67.016 217.175 66.536V32.264C217.175 31.784 217.319 31.4 217.607 31.112C217.895 30.824 218.279 30.68 218.759 30.68H219.983C220.463 30.68 220.847 30.824 221.135 31.112C221.423 31.4 221.567 31.784 221.567 32.264V34.784C222.815 33.2 224.255 32 225.887 31.184C227.567 30.368 229.56 29.96 231.864 29.96C237.24 29.96 241.079 32.216 243.383 36.728C244.535 34.664 246.168 33.032 248.28 31.832C250.44 30.584 252.887 29.96 255.623 29.96C259.607 29.96 262.847 31.328 265.343 34.064C267.839 36.752 269.087 40.592 269.087 45.584V66.536C269.087 67.016 268.944 67.4 268.656 67.688C268.368 67.976 267.983 68.12 267.503 68.12H266.279C265.799 68.12 265.415 67.976 265.127 67.688C264.839 67.4 264.695 67.016 264.695 66.536V46.304C264.695 41.936 263.783 38.816 261.959 36.944C260.183 35.072 257.831 34.136 254.903 34.136C252.311 34.136 250.055 35.096 248.135 37.016C246.263 38.888 245.327 41.984 245.327 46.304V66.536C245.327 67.016 245.184 67.4 244.896 67.688C244.607 67.976 244.223 68.12 243.743 68.12H242.52C242.039 68.12 241.655 67.976 241.368 67.688C241.079 67.4 240.936 67.016 240.936 66.536V46.304C240.936 41.984 240 38.888 238.128 37.016C236.256 35.096 233.928 34.136 231.144 34.136C228.552 34.136 226.295 35.096 224.375 37.016C222.503 38.888 221.567 41.96 221.567 46.232V66.536C221.567 67.016 221.423 67.4 221.135 67.688C220.847 67.976 220.463 68.12 219.983 68.12H218.759Z" fill="black"/>
<path d="M293.562 68.84C289.002 68.84 285.33 67.352 282.546 64.376C279.762 61.352 278.178 57.32 277.794 52.28L277.722 49.4L277.794 46.52C278.178 41.528 279.738 37.52 282.474 34.496C285.258 31.472 288.954 29.96 293.562 29.96C298.554 29.96 302.442 31.616 305.226 34.928C308.058 38.24 309.474 42.776 309.474 48.536V49.616C309.474 50.096 309.306 50.48 308.97 50.768C308.682 51.056 308.298 51.2 307.818 51.2H282.186V51.92C282.282 54.176 282.786 56.288 283.698 58.256C284.658 60.176 285.978 61.736 287.658 62.936C289.338 64.088 291.306 64.664 293.562 64.664C296.202 64.664 298.338 64.16 299.97 63.152C301.65 62.096 302.85 61.04 303.57 59.984C304.002 59.408 304.314 59.048 304.506 58.904C304.746 58.76 305.154 58.688 305.73 58.688H306.882C307.314 58.688 307.674 58.808 307.962 59.048C308.25 59.288 308.394 59.6 308.394 59.984C308.394 60.992 307.746 62.216 306.45 63.656C305.202 65.048 303.45 66.272 301.194 67.328C298.938 68.336 296.394 68.84 293.562 68.84ZM305.082 47.168V46.88C305.082 43.184 304.026 40.136 301.914 37.736C299.85 35.336 297.066 34.136 293.562 34.136C290.058 34.136 287.274 35.336 285.21 37.736C283.194 40.136 282.186 43.184 282.186 46.88V47.168H305.082Z" fill="black"/>
<path d="M319.835 68.12C319.355 68.12 318.971 67.976 318.683 67.688C318.395 67.4 318.251 67.016 318.251 66.536V32.264C318.251 31.784 318.395 31.4 318.683 31.112C318.971 30.824 319.355 30.68 319.835 30.68H321.059C321.539 30.68 321.923 30.824 322.211 31.112C322.499 31.4 322.643 31.784 322.643 32.264V34.784C323.891 33.2 325.331 32 326.963 31.184C328.643 30.368 330.635 29.96 332.939 29.96C338.315 29.96 342.155 32.216 344.459 36.728C345.611 34.664 347.243 33.032 349.355 31.832C351.515 30.584 353.963 29.96 356.699 29.96C360.683 29.96 363.923 31.328 366.419 34.064C368.915 36.752 370.163 40.592 370.163 45.584V66.536C370.163 67.016 370.019 67.4 369.731 67.688C369.443 67.976 369.059 68.12 368.579 68.12H367.355C366.875 68.12 366.491 67.976 366.203 67.688C365.915 67.4 365.771 67.016 365.771 66.536V46.304C365.771 41.936 364.859 38.816 363.035 36.944C361.259 35.072 358.907 34.136 355.979 34.136C353.387 34.136 351.131 35.096 349.211 37.016C347.339 38.888 346.403 41.984 346.403 46.304V66.536C346.403 67.016 346.259 67.4 345.971 67.688C345.683 67.976 345.299 68.12 344.819 68.12H343.595C343.115 68.12 342.731 67.976 342.443 67.688C342.155 67.4 342.011 67.016 342.011 66.536V46.304C342.011 41.984 341.075 38.888 339.203 37.016C337.331 35.096 335.003 34.136 332.219 34.136C329.627 34.136 327.371 35.096 325.451 37.016C323.579 38.888 322.643 41.96 322.643 46.232V66.536C322.643 67.016 322.499 67.4 322.211 67.688C321.923 67.976 321.539 68.12 321.059 68.12H319.835Z" fill="black"/>
<path d="M390.822 68.84C388.518 68.84 386.382 68.36 384.414 67.4C382.446 66.44 380.862 65.144 379.662 63.512C378.51 61.88 377.934 60.08 377.934 58.112C377.934 54.944 379.206 52.352 381.75 50.336C384.342 48.32 387.822 47.024 392.19 46.448L403.566 44.864V42.344C403.566 39.704 402.75 37.688 401.118 36.296C399.534 34.856 397.086 34.136 393.774 34.136C391.326 34.136 389.31 34.616 387.726 35.576C386.19 36.536 385.206 37.688 384.774 39.032C384.582 39.608 384.342 40.016 384.054 40.256C383.814 40.448 383.478 40.544 383.046 40.544H382.038C381.606 40.544 381.222 40.4 380.886 40.112C380.598 39.776 380.454 39.392 380.454 38.96C380.454 37.904 380.934 36.68 381.894 35.288C382.854 33.848 384.342 32.6 386.358 31.544C388.374 30.488 390.846 29.96 393.774 29.96C398.91 29.96 402.558 31.184 404.718 33.632C406.878 36.08 407.958 39.056 407.958 42.56V66.536C407.958 67.016 407.814 67.4 407.526 67.688C407.238 67.976 406.854 68.12 406.374 68.12H405.15C404.67 68.12 404.286 67.976 403.998 67.688C403.71 67.4 403.566 67.016 403.566 66.536V63.152C402.51 64.736 400.95 66.08 398.886 67.184C396.87 68.288 394.182 68.84 390.822 68.84ZM391.542 64.664C395.046 64.664 397.926 63.512 400.182 61.208C402.438 58.904 403.566 55.592 403.566 51.272V48.824L394.278 50.12C390.342 50.648 387.366 51.56 385.35 52.856C383.334 54.152 382.326 55.784 382.326 57.752C382.326 59.96 383.238 61.664 385.062 62.864C386.934 64.064 389.094 64.664 391.542 64.664Z" fill="black"/>
<path d="M432.16 68.84C426.976 68.84 423.136 67.16 420.64 63.8C418.192 60.392 416.896 56.264 416.752 51.416L416.68 49.4L416.752 47.384C416.896 42.536 418.192 38.432 420.64 35.072C423.136 31.664 426.976 29.96 432.16 29.96C437.392 29.96 441.424 31.856 444.256 35.648V18.584C444.256 18.104 444.4 17.72 444.688 17.432C444.976 17.144 445.36 17 445.84 17H447.064C447.544 17 447.928 17.144 448.216 17.432C448.504 17.72 448.648 18.104 448.648 18.584V66.536C448.648 67.016 448.504 67.4 448.216 67.688C447.928 67.976 447.544 68.12 447.064 68.12H445.84C445.36 68.12 444.976 67.976 444.688 67.688C444.4 67.4 444.256 67.016 444.256 66.536V63.152C441.472 66.944 437.44 68.84 432.16 68.84ZM432.592 64.664C436.384 64.664 439.24 63.416 441.16 60.92C443.08 58.376 444.112 55.4 444.256 51.992C444.304 51.512 444.328 50.576 444.328 49.184C444.328 47.792 444.304 46.856 444.256 46.376C444.208 44.312 443.752 42.368 442.888 40.544C442.024 38.672 440.728 37.136 439 35.936C437.272 34.736 435.136 34.136 432.592 34.136C428.704 34.136 425.848 35.384 424.024 37.88C422.248 40.328 421.288 43.496 421.144 47.384L421.072 49.4C421.072 53.864 421.936 57.536 423.664 60.416C425.392 63.248 428.368 64.664 432.592 64.664Z" fill="black"/>
<path d="M473.565 68.84C469.005 68.84 465.333 67.352 462.549 64.376C459.765 61.352 458.181 57.32 457.797 52.28L457.725 49.4L457.797 46.52C458.181 41.528 459.741 37.52 462.477 34.496C465.261 31.472 468.957 29.96 473.565 29.96C478.557 29.96 482.445 31.616 485.229 34.928C488.061 38.24 489.477 42.776 489.477 48.536V49.616C489.477 50.096 489.309 50.48 488.973 50.768C488.685 51.056 488.301 51.2 487.821 51.2H462.189V51.92C462.285 54.176 462.789 56.288 463.701 58.256C464.661 60.176 465.981 61.736 467.661 62.936C469.341 64.088 471.309 64.664 473.565 64.664C476.205 64.664 478.341 64.16 479.973 63.152C481.653 62.096 482.853 61.04 483.573 59.984C484.005 59.408 484.317 59.048 484.509 58.904C484.749 58.76 485.157 58.688 485.733 58.688H486.885C487.317 58.688 487.677 58.808 487.965 59.048C488.253 59.288 488.397 59.6 488.397 59.984C488.397 60.992 487.749 62.216 486.453 63.656C485.205 65.048 483.453 66.272 481.197 67.328C478.941 68.336 476.397 68.84 473.565 68.84ZM485.085 47.168V46.88C485.085 43.184 484.029 40.136 481.917 37.736C479.853 35.336 477.069 34.136 473.565 34.136C470.061 34.136 467.277 35.336 465.213 37.736C463.197 40.136 462.189 43.184 462.189 46.88V47.168H485.085Z" fill="black"/>
<path d="M47.6933 0.0237714C47.3079 0.0746345 46.9432 0.227432 46.6368 0.466356L0.833225 36.4178C0.579424 36.6171 0.373073 36.8703 0.229061 37.1589C0.0850487 37.4475 0.00696565 37.7645 0.00044504 38.0869C-0.00607557 38.4094 0.059129 38.7292 0.191354 39.0234C0.32358 39.3177 0.519529 39.5789 0.765065 39.7883L8.39899 46.3249C8.78064 46.6526 9.26397 46.8384 9.76708 46.8508C10.2702 46.8633 10.7621 46.7015 11.1595 46.393L11.6366 46.0526L19.6795 83.2637C19.7818 83.7562 20.0515 84.1981 20.4428 84.5146C20.8342 84.8311 21.323 85.0026 21.8265 85H74.1735C74.677 85.0026 75.1658 84.8311 75.5572 84.5146C75.9485 84.1981 76.2182 83.7562 76.3205 83.2637L84.3634 46.0526L84.8405 46.393C85.2379 46.7015 85.7298 46.8633 86.2329 46.8508C86.736 46.8384 87.2194 46.6526 87.601 46.3249L95.2349 39.7883C95.4805 39.5789 95.6764 39.3177 95.8086 39.0234C95.9409 38.7292 96.0061 38.4094 95.9996 38.0869C95.993 37.7645 95.9149 37.4475 95.7709 37.1589C95.6269 36.8703 95.4206 36.6171 95.1668 36.4178L49.3632 0.466356C49.1297 0.282872 48.8611 0.148971 48.574 0.0728658C48.2868 -0.00323965 47.9871 -0.0199462 47.6933 0.0237714ZM48 4.96029L90.3615 38.2222L86.1015 41.865L49.3291 13.5396C48.948 13.247 48.4807 13.0884 48 13.0884C47.5193 13.0884 47.052 13.247 46.6709 13.5396L9.89852 41.865L5.63851 38.2222L48 4.96029ZM48 17.9995L80.5124 43.0566L72.4013 80.6422H23.5987L15.4876 43.0566L48 17.9995ZM48 35.9752C39.5936 35.9752 32.7321 42.8297 32.7321 51.2274C32.7321 59.6251 39.5936 66.4795 48 66.4795C56.4064 66.4795 63.2679 59.6251 63.2679 51.2274C63.2679 42.8297 56.4064 35.9752 48 35.9752ZM48 40.333C54.0488 40.333 58.9056 45.1848 58.9056 51.2274C58.9056 57.27 54.0488 62.1218 48 62.1218C41.9512 62.1218 37.0944 57.27 37.0944 51.2274C37.0944 45.1848 41.9512 40.333 48 40.333Z" fill="black"/>
</g>
<defs>
<clipPath id="clip0">
<rect width="489" height="85" fill="white"/>
</clipPath>
</defs>
</svg>
