<svg width="96" height="85" viewBox="0 0 96 85" fill="none" xmlns="http://www.w3.org/2000/svg">
<path d="M47.6933 0.0237714C47.3079 0.0746345 46.9432 0.227432 46.6368 0.466356L0.833225 36.4178C0.579424 36.6171 0.373073 36.8703 0.229061 37.1589C0.0850487 37.4475 0.00696565 37.7645 0.00044504 38.0869C-0.00607557 38.4094 0.059129 38.7292 0.191354 39.0234C0.32358 39.3177 0.519529 39.5789 0.765065 39.7883L8.39899 46.3249C8.78064 46.6526 9.26397 46.8384 9.76708 46.8508C10.2702 46.8633 10.7621 46.7015 11.1595 46.393L11.6366 46.0526L19.6795 83.2637C19.7818 83.7562 20.0515 84.1981 20.4428 84.5146C20.8342 84.8311 21.323 85.0026 21.8265 85H74.1735C74.677 85.0026 75.1658 84.8311 75.5572 84.5146C75.9485 84.1981 76.2182 83.7562 76.3205 83.2637L84.3634 46.0526L84.8405 46.393C85.2379 46.7015 85.7298 46.8633 86.2329 46.8508C86.736 46.8384 87.2194 46.6526 87.601 46.3249L95.2349 39.7883C95.4805 39.5789 95.6764 39.3177 95.8086 39.0234C95.9409 38.7292 96.0061 38.4094 95.9996 38.0869C95.993 37.7645 95.9149 37.4475 95.7709 37.1589C95.6269 36.8703 95.4206 36.6171 95.1668 36.4178L49.3632 0.466356C49.1297 0.282872 48.8611 0.148971 48.574 0.0728658C48.2868 -0.00323965 47.9871 -0.0199462 47.6933 0.0237714ZM48 4.96029L90.3615 38.2222L86.1015 41.865L49.3291 13.5396C48.948 13.247 48.4807 13.0884 48 13.0884C47.5193 13.0884 47.052 13.247 46.6709 13.5396L9.89852 41.865L5.63851 38.2222L48 4.96029ZM48 17.9995L80.5124 43.0566L72.4013 80.6422H23.5987L15.4876 43.0566L48 17.9995ZM48 35.9752C39.5936 35.9752 32.7321 42.8297 32.7321 51.2274C32.7321 59.6251 39.5936 66.4795 48 66.4795C56.4064 66.4795 63.2679 59.6251 63.2679 51.2274C63.2679 42.8297 56.4064 35.9752 48 35.9752ZM48 40.333C54.0488 40.333 58.9056 45.1848 58.9056 51.2274C58.9056 57.27 54.0488 62.1218 48 62.1218C41.9512 62.1218 37.0944 57.27 37.0944 51.2274C37.0944 45.1848 41.9512 40.333 48 40.333Z" fill="#86BA90"/>
</svg>
